<?xml version="1.0" standalone="no"?><!DOCTYPE svg PUBLIC "-//W3C//DTD SVG 1.1//EN" "http://www.w3.org/Graphics/SVG/1.1/DTD/svg11.dtd"><svg t="1578103315004" class="icon" viewBox="0 0 1048 1024" version="1.1" xmlns="http://www.w3.org/2000/svg" p-id="5180" xmlns:xlink="http://www.w3.org/1999/xlink" width="32.75" height="32"><defs><style type="text/css"></style></defs><path d="M786.332098 664.900683a24.97561 24.97561 0 0 1 0-49.95122l77.224585-0.024975a60.440976 60.440976 0 0 1 55.320976 36.139707l123.629268 282.948683a60.341073 60.341073 0 0 1-4.670439 57.244098 60.341073 60.341073 0 0 1-50.600586 27.47317h-926.595122a60.440976 60.440976 0 0 1-54.346926-86.740292l136.741463-283.02361a60.416 60.416 0 0 1 54.346927-34.016781H264.741463a24.97561 24.97561 0 1 1 0 49.95122H197.382244a10.439805 10.439805 0 0 0-9.390829 5.844293L51.249951 953.768585a10.414829 10.414829 0 0 0 9.390829 14.985366h926.595122a10.414829 10.414829 0 0 0 9.540683-14.685658l-123.629268-282.973659a10.489756 10.489756 0 0 0-9.565658-6.243902l-77.249561 0.049951z" p-id="5181" fill="#e6e6e6"></path><path d="M531.68078 777.041171c7.79239-8.941268 16.284098-18.556878 27.772879-31.544195 6.793366-7.642537 31.619122-35.565268 36.46439-41.059903 14.73561-16.583805 26.424195-29.945756 37.713171-43.057951 86.665366-100.651707 138.589659-177.37678 162.541268-251.204683 8.716488-26.873756 13.162146-52.423805 13.162146-76.750049C809.334634 177.152 682.183805 49.95122 525.911415 49.95122 369.639024 49.976195 242.513171 177.152 242.513171 333.42439c0 25.82478 4.945171 53.073171 14.610731 81.820098 24.451122 72.554146 75.176585 148.25522 157.970732 245.884878 10.414829 12.288 21.329171 24.925659 34.241561 39.711219a9219.321756 9219.321756 0 0 0 33.292488 37.962927c17.982439 20.48 24.725854 28.222439 33.292488 38.212683a10.439805 10.439805 0 0 0 15.784585 0.024976z m-7.892292 53.497756a60.391024 60.391024 0 0 1-45.805268-21.004488c-8.391805-9.790439-15.060293-17.432976-32.917854-37.813073a33891.752585 33891.752585 0 0 0-33.367415-38.012878c-13.062244-14.96039-24.126439-27.772878-34.716097-40.260683-86.615415-102.150244-140.213073-182.122146-167.211708-262.243903-11.338927-33.667122-17.233171-66.210341-17.23317-97.779512C192.536976 149.553951 342.065951 0 525.911415 0c183.870439 0 333.374439 149.528976 333.374439 333.399415 0 29.845854-5.34478 60.540878-15.609756 92.16-26.549073 81.870049-81.470439 163.065756-172.181854 268.387902-11.48878 13.312-23.32722 26.84878-38.212683 43.607415l-36.439415 41.034927c-11.438829 12.91239-19.830634 22.453073-27.548097 31.294439a60.391024 60.391024 0 0 1-45.505561 20.629853z" p-id="5182" fill="#e6e6e6"></path><path d="M525.911415 450.410146a134.743415 134.743415 0 0 1-134.568586-134.618536 134.743415 134.743415 0 0 1 134.568586-134.593561 134.743415 134.743415 0 0 1 134.618536 134.618536 134.743415 134.743415 0 0 1-134.618536 134.593561z m0-198.356292a63.812683 63.812683 0 0 0-63.737756 63.737756 63.812683 63.812683 0 0 0 63.737756 63.737756 63.812683 63.812683 0 0 0 63.762731-63.737756 63.837659 63.837659 0 0 0-63.762731-63.737756z" p-id="5183" fill="#e6e6e6"></path></svg>